<svg xmlns="http://www.w3.org/2000/svg" viewBox="0 0 100 108">
  <rect width="100" height="108" rx="18" fill="#f5f5f0"/>
  <g stroke="#1a1a1a" stroke-width="13" stroke-linecap="butt" stroke-linejoin="miter" fill="none">
    <path d="M32,22.5 L50,12 L68,22.5"/>
    <path d="M68,22.5 L86,33 L86,54"/>
    <path d="M86,54 L86,75 L68,85.5"/>
    <path d="M68,85.5 L50,96 L32,85.5"/>
    <path d="M32,85.5 L14,75 L14,54"/>
    <path d="M14,54 L14,33 L32,22.5"/>
  </g>
  <g fill="#1a1a1a">
    <circle cx="50" cy="12"  r="6.5"/>
    <circle cx="86" cy="33"  r="6.5"/>
    <circle cx="86" cy="75"  r="6.5"/>
    <circle cx="50" cy="96"  r="6.5"/>
    <circle cx="14" cy="75"  r="6.5"/>
    <circle cx="14" cy="33"  r="6.5"/>
    <circle cx="50" cy="54"  r="6.5"/>
  </g>
</svg>
